<?xml version="1.0" encoding="UTF-8"?>
<svg id="Calque_2" data-name="Calque 2" xmlns="http://www.w3.org/2000/svg" viewBox="0 0 416.36 119.41">
  <defs>
    <style>
      .cls-1 {
        fill: #f2f0f4;
      }
    </style>
  </defs>
  <g id="Calque_1-2" data-name="Calque 1">
    <g>
      <g>
        <path class="cls-1" d="M150.15,13.94c-.44,2.32-1.7,4.4-3.96,6.16-3.52,2.64-6.97,4.84-10.36,6.59-3.39,1.7-6.22,3.08-8.42,3.96-1.76.75-2.76,1.26-3.14,1.57,7.29,1.7,10.93,4.15,10.87,7.29-.25,4.08-3.77,7.6-10.74,10.61-6.91,3.01-14.88,4.33-23.99,3.96l-.19.44c-.38.88-.75,1.88-1.19,3.08-.44,1.13-.82,2.2-1.13,3.2s-.44,1.76-.38,2.14c0,.63-.19,1-.75,1.19-.5.19-1.13.19-1.88.06-.69-.19-1.26-.5-1.76-1-.5-.44-.63-1.07-.5-1.76.5-1.88,1.07-3.58,1.82-5.21.38-.88.75-1.88,1.13-2.89-.82-.12-1.88-.38-3.2-.82-1.38-.38-2.64-.94-3.77-1.57-.82-.63-1.19-1.32-1.13-2.13.06-.82.44-1.44,1.13-1.82.69-.44,1.44-.38,2.39.19.82.5,1.82,1,3.01,1.44s2.39.69,3.39.75l4.46-9.3c-1.07.5-2.45.88-4.27,1.13-2.39.06-3.77-.57-4.15-2.01-.38-1.44.5-2.7,2.64-3.71,2.95-1,5.72-1.82,8.29-2.39.44-.06.82-.19,1.19-.25,4.21-8.1,8.92-15.95,14.26-23.43l.25-.38c0-.06.06-.13.19-.25-8.04.82-14.89,2.07-20.73,3.83-5.78,1.7-10.93,3.64-15.45,5.84-.57.25-1.19.06-1.88-.57-.63-.57-1.07-1.26-1.32-2.07-.25-.75-.06-1.38.63-1.76,6.53-3.14,13.94-5.46,22.23-7.1,8.29-1.63,14.63-2.58,18.97-2.76.25-.06.57-.31.94-.69l1.07-1.44c.38-.57.69-1.07,1.07-1.44.31-.44.63-.63.88-.63.38,0,.88.13,1.44.38.56.25,1.07.69,1.51,1.26.44.57.63,1.32.63,2.26.63.06,1.26.06,1.88.13,2.51.06,5.09.31,7.66.75,2.58.38,4.9,1.26,7.03,2.64,2.58,1.95,3.71,4.14,3.33,6.53ZM112.28,49.24c4.27-.82,8.23-2.01,11.81-3.71,3.58-1.63,5.53-3.52,5.78-5.78-.06-1.19-1.13-2.2-3.08-2.95-2.01-.75-4.46-1.13-7.29-1.13-2.58,0-5.09.31-7.41.94-2.39.69-3.83,1.44-4.33,2.26-.56,1.19-1.19,2.39-1.82,3.71-1.38,2.64-2.58,5.15-3.58,7.47,2.32.25,5.65,0,9.92-.82ZM122.45,27.95c4.77-1.95,9.42-4.15,13.88-6.66,4.46-2.45,7.41-4.9,8.86-7.22.38-.75.38-1.38.06-1.95s-.75-1-1.38-1.38c-.63-.38-1.26-.63-1.82-.82-4.84-1.38-9.8-1.88-14.88-1.57-.69.06-1.76,1.13-3.27,3.2-1.44,2.01-3.08,4.4-4.77,7.16-1.76,2.76-3.27,5.34-4.65,7.73-1.38,2.39-2.26,4.02-2.7,4.84l-.19.38c-.06.13-.06.19-.13.38,2.51-.82,6.22-2.13,10.99-4.08Z"/>
        <path class="cls-1" d="M151.78,27.7c.82.19,1.44.63,1.95,1.26.5.69.5,1.38,0,2.2-1.38,1.76-2.64,3.58-3.83,5.46-1.19,1.82-1.95,3.39-2.14,4.65-.25,1.26.38,1.82,1.88,1.7,2.26-.31,4.84-1.26,7.6-2.83,2.76-1.57,5.28-3.2,7.6-4.9,2.32-1.7,3.89-2.95,4.77-3.64.25-.19.38-.31.44-.38.5-.31,1-.44,1.44-.25.5.19.75.5.88,1s-.13,1-.69,1.63c-1,.94-2.83,2.51-5.59,4.71-2.76,2.2-5.78,4.21-9.11,6.09s-6.28,2.83-8.92,2.89c-2.64.06-4.27-1.57-4.96-4.9-.06-2.39.75-5.02,2.45-7.85,1.7-2.83,3.08-4.96,4.21-6.34.5-.57,1.13-.69,2.01-.5ZM154.92,20.85c.63-1.19,1.38-2.14,2.14-2.7.38-.25,1-.44,1.82-.44.82-.06,1.57.06,2.2.31.69.25.94.69.75,1.38-.31.75-1,1.76-2.07,2.89-1.13,1.19-2.26,2.2-3.45,3.01-1.19.88-2.07,1.19-2.64,1.07-.38-.19-.44-.88-.19-2.01.31-1.07.75-2.26,1.44-3.52Z"/>
        <path class="cls-1" d="M159,43.34c.19-1.95.94-3.71,2.14-5.46,2.76-4.08,6.22-7.66,10.24-10.61,3.58-2.45,6.22-3.27,7.91-2.64,1.7.69,2.14,2.01,1.38,3.96-1,1.88-2.51,3.39-4.58,4.58-2.07,1.26-4.08,2.26-6.15,3.08-.94.38-1.82.82-2.64,1.13-.5.31-1.07.75-1.57,1.32-.56.63-1.07,1.26-1.44,1.95-.44.63-.63,1.19-.69,1.7-.06.44.19.63.75.63,3.2-.44,7.79-2.07,13.88-4.9,6.03-2.83,10.93-5.53,14.63-8.16.88-.44,1.63-.44,2.26-.06.63.31.94.94.94,1.7-.06.82-.69,1.63-1.88,2.51-2.2,1.51-5.46,3.33-9.73,5.59-4.21,2.2-8.48,4.08-12.81,5.72-4.27,1.57-7.6,2.13-9.99,1.76-2.01-.63-2.89-1.88-2.64-3.77Z"/>
        <path class="cls-1" d="M196.56,27.19c.75.19,1.38.63,1.88,1.26.44.69.5,1.32.13,1.95-.44.63-.88,1.32-1.32,1.88-.5.75-.94,1.38-1.32,1.88-.31.57-.5.94-.5,1.19.63-.63,1.63-1.57,3.14-2.89,1.44-1.32,2.95-2.64,4.46-3.83,1.51-1.26,2.64-2.07,3.33-2.39.57-.19,1.19-.06,1.82.31.69.38,1.19.88,1.63,1.57.44.63.63,1.32.5,1.95-.13.5-.38,1.13-.75,1.95l-1.38,2.64c-.69,1.32-1.26,2.45-1.7,3.46-.5,1-.56,1.63-.31,1.76.94.25,2.26-.06,4.02-.94,1.76-.88,3.45-1.88,5.09-3.01,1.7-1.13,2.83-1.95,3.52-2.45,0,0,.06-.06.13-.06.69-.5,1.32-.57,1.82-.31.5.31.75.75.82,1.38,0,.63-.31,1.19-1,1.76-2.89,2.26-6.03,4.27-9.55,6.16-3.52,1.82-6.34,2.39-8.42,1.51-1.26-.82-1.57-2.13-1.07-4.02.5-1.88,1.13-3.64,1.95-5.28.31-.69.57-1.26.75-1.76.06-.44-.38-.19-1.44.69-1,.88-2.26,2.13-3.77,3.64l-4.4,4.46c-1.63,1.7-2.76,2.89-3.39,3.52-.56.38-1.19.5-1.95.25-.69-.25-1.32-.69-1.76-1.32-.44-.69-.5-1.44-.19-2.32,1.95-4.33,4.4-8.92,7.35-13.88.5-.63,1.13-.88,1.88-.69Z"/>
        <path class="cls-1" d="M223.31,25.88c.82.06,1.44.31,2.01.88.5.57.57,1.26.13,2.07-.5.82-1.13,1.95-1.82,3.46-.69,1.44-1.38,2.95-2.07,4.52-.69,1.57-1.26,2.89-1.7,4.02-.44,1.13-.63,1.76-.63,1.88.19.06,1-.69,2.45-2.26,1.44-1.51,3.08-3.45,4.84-5.65,1.82-2.26,3.33-4.4,4.52-6.34.25-.38.5-.94.88-1.82.25-.5.44-1,.69-1.44.25-.5.44-.94.69-1.26.44-.69,1-1.07,1.7-1.19.69-.06,1.32.06,1.88.44.5.38.75.88.69,1.57-.19.94-.44,1.76-.75,2.51-.31.75-.5,1.51-.75,2.39-.19.82-.19,1.88-.06,3.08.19,1.26.94,2.13,2.2,2.51,1.26.44,2.64.25,4.15-.63.82-.44,1.44-.5,1.95-.19.5.25.75.75.69,1.32,0,.63-.38,1.13-1.13,1.63-2.2,1.26-4.58,1.7-7.16,1.32-2.58-.38-4.21-1.76-4.96-4.08l-1.95,2.26c-1.38,1.76-3.01,3.64-4.84,5.72-1.82,2.01-3.39,3.58-4.77,4.65-1.44.88-2.83,1-4.15.31-1.38-.63-1.88-1.95-1.63-3.89.19-.82.75-2.39,1.7-4.65s1.95-4.58,2.95-6.91c1.07-2.39,1.88-4.15,2.45-5.28.44-.63,1-1,1.82-.94Z"/>
        <path class="cls-1" d="M237.07,43.34c.19-1.95.94-3.71,2.14-5.46,2.76-4.08,6.22-7.66,10.24-10.61,3.58-2.45,6.22-3.27,7.91-2.64,1.7.69,2.14,2.01,1.38,3.96-1,1.88-2.51,3.39-4.58,4.58-2.07,1.26-4.08,2.26-6.15,3.08-.94.38-1.82.82-2.64,1.13-.5.31-1.07.75-1.57,1.32-.56.63-1.07,1.26-1.44,1.95-.44.63-.63,1.19-.69,1.7-.06.44.19.63.75.63,3.2-.44,7.79-2.07,13.88-4.9,6.03-2.83,10.93-5.53,14.63-8.16.88-.44,1.63-.44,2.26-.06.63.31.94.94.94,1.7-.06.82-.69,1.63-1.88,2.51-2.2,1.51-5.46,3.33-9.73,5.59-4.21,2.2-8.48,4.08-12.81,5.72-4.27,1.57-7.6,2.13-9.99,1.76-2.01-.63-2.89-1.88-2.64-3.77Z"/>
        <path class="cls-1" d="M274.62,27.19c.75.19,1.38.63,1.88,1.26.44.69.5,1.32.13,1.95-.44.63-.88,1.32-1.32,1.88-.5.75-.94,1.38-1.32,1.88-.31.57-.5.94-.5,1.19.63-.63,1.63-1.57,3.14-2.89,1.44-1.32,2.95-2.64,4.46-3.83,1.51-1.26,2.64-2.07,3.33-2.39.57-.19,1.19-.06,1.82.31.69.38,1.19.88,1.63,1.57.44.63.63,1.32.5,1.95-.13.5-.38,1.13-.75,1.95l-1.38,2.64c-.69,1.32-1.26,2.45-1.7,3.46-.5,1-.56,1.63-.31,1.76.94.25,2.26-.06,4.02-.94,1.76-.88,3.45-1.88,5.09-3.01,1.7-1.13,2.83-1.95,3.52-2.45,0,0,.06-.06.13-.06.69-.5,1.32-.57,1.82-.31.5.31.75.75.82,1.38,0,.63-.31,1.19-1,1.76-2.89,2.26-6.03,4.27-9.55,6.16-3.52,1.82-6.34,2.39-8.42,1.51-1.26-.82-1.57-2.13-1.07-4.02.5-1.88,1.13-3.64,1.95-5.28.31-.69.57-1.26.75-1.76.06-.44-.38-.19-1.44.69-1,.88-2.26,2.13-3.77,3.64l-4.4,4.46c-1.63,1.7-2.76,2.89-3.39,3.52-.56.38-1.19.5-1.95.25-.69-.25-1.32-.69-1.76-1.32-.44-.69-.5-1.44-.19-2.32,1.95-4.33,4.4-8.92,7.35-13.88.5-.63,1.13-.88,1.88-.69Z"/>
        <path class="cls-1" d="M316.14,24.68c.94.44,1.7,1.07,2.26,1.88.57.82.63,1.57.31,2.2-.19.31-.5.69-.88,1.19-1.38,1.63-2.7,3.64-3.89,6.09-1.26,2.45-1.82,4.46-1.7,6.03.13.88-.25,1.44-1.07,1.76-.88.31-1.76.31-2.7-.06-.94-.38-1.38-1.07-1.38-2.14.25-1.76.69-3.33,1.38-4.77.63-1.44,1.26-2.51,1.82-3.33.19-.25.25-.44.31-.5-.57.69-1.51,1.82-2.83,3.27-1.32,1.51-2.95,3.2-4.77,5.02-1.88,1.88-3.45,3.27-4.65,4.21-1,.69-2.07.94-3.2.63-1.19-.31-2.07-.94-2.7-1.88-.69-.94-.75-2.01-.31-3.2.94-2.07,2.32-4.4,4.02-6.97,1.7-2.58,3.01-4.27,4.02-5.21.82-.63,1.63-.75,2.39-.38.69.44,1.19,1,1.44,1.82.25.82.06,1.51-.63,2.07-.88.44-2.7,2.76-5.46,7.03-.82,1.38-.82,1.82-.13,1.32.69-.44,1.88-1.44,3.52-3.01,1.57-1.57,3.33-3.27,5.15-5.21,1.82-1.95,3.52-3.64,4.96-5.21.88-.94,1.57-1.7,2.14-2.26.75-.69,1.63-.82,2.58-.38Z"/>
        <path class="cls-1" d="M315.82,43.34c.19-1.95.94-3.71,2.14-5.46,2.76-4.08,6.22-7.66,10.24-10.61,3.58-2.45,6.22-3.27,7.91-2.64,1.7.69,2.14,2.01,1.38,3.96-1,1.88-2.51,3.39-4.58,4.58-2.07,1.26-4.08,2.26-6.15,3.08-.94.38-1.82.82-2.64,1.13-.5.31-1.07.75-1.57,1.32-.56.63-1.07,1.26-1.44,1.95-.44.63-.63,1.19-.69,1.7-.06.44.19.63.75.63,3.2-.44,7.79-2.07,13.88-4.9,6.03-2.83,10.93-5.53,14.63-8.16.88-.44,1.63-.44,2.26-.06.63.31.94.94.94,1.7-.06.82-.69,1.63-1.88,2.51-2.2,1.51-5.46,3.33-9.73,5.59-4.21,2.2-8.48,4.08-12.81,5.72-4.27,1.57-7.6,2.13-9.99,1.76-2.01-.63-2.89-1.88-2.64-3.77Z"/>
      </g>
      <g>
        <path class="cls-1" d="M26.19,60.62c-5.34,3.33-9.92,7.47-13.69,12.37-3.71,4.96-6.15,9.92-7.35,14.88-1.13,4.96-.5,9.17,2.01,12.62,1.95,2.32,4.58,3.27,8.04,2.83,3.39-.44,6.85-1.76,10.3-4.02,3.45-2.26,6.28-4.96,8.35-8.17.19-.38.44-.75.69-1.13.19-.38.44-.75.69-1.19.57-.75,1.26-1.13,2.14-1.07.82.06,1.44.44,1.82,1.07.38.63.38,1.44-.13,2.39-2.95,5.15-6.85,9.23-11.62,12.31-4.84,3.01-9.61,4.4-14.32,4.15-4.71-.25-8.35-2.51-10.99-6.85-1.95-3.89-2.58-8.04-1.82-12.37.75-4.33,2.01-8.17,3.83-11.49,4.27-7.35,9.86-13.44,16.77-18.15,6.91-4.71,13.31-7.22,19.16-7.54,5.9-.38,10.43.88,13.5,3.83.63.63.75,1.26.5,1.82-.19.63-.69,1.07-1.38,1.51-.63.38-1.38.25-2.26-.25-1.19-.94-2.39-1.57-3.52-2.01-1.07-.38-2.32-.63-3.77-.69-5.9.12-11.56,1.82-16.96,5.15Z"/>
        <path class="cls-1" d="M58.97,85.93c-1.63,1.51-3.45,3.33-5.46,5.53s-3.77,4.21-5.4,6.09l-3.01,3.52c-.82,1-1.7,1.51-2.58,1.51-.94.06-1.63-.31-2.14-1.07-.44-.75-.38-1.88.13-3.33,2.2-5.21,5.65-12.56,10.36-22.17,4.71-9.67,9.23-18.03,13.63-25.25.44-.69,1.13-.94,1.88-.82.75.19,1.38.63,1.82,1.26.5.69.57,1.38.13,2.13-.25.57-.75,1.7-1.44,3.45-.88,2.32-1.76,4.58-2.76,6.72-.06.12-.19.19-.38.25-.13,0-.31,0-.5-.06h-.57c-.13,0-.31.12-.38.25-2.14,3.77-4.27,7.66-6.41,11.68-2.14,3.96-3.89,7.41-5.28,10.24s-1.95,4.4-1.76,4.65c.25-.31.63-.69,1-1.13,1.57-1.82,3.45-3.83,5.78-6.09,2.39-2.32,4.58-3.89,6.72-4.71,2.07-.82,3.58.06,4.4,2.7.19,1.13.31,2.45.31,3.89,0,1,.06,1.88.19,2.64.06.75.25,1.26.56,1.38.82.19,2.32-.57,4.46-2.26,2.14-1.7,4.27-3.58,6.41-5.65.44-.31.88-.38,1.38-.19.57.19.94.57,1.19,1.07.19.5.13,1.07-.38,1.63-2.01,2.32-4.52,4.65-7.54,6.97-3.08,2.32-5.72,3.08-8.1,2.32-1-.57-1.7-1.44-2.01-2.7-.31-1.19-.44-2.39-.5-3.64l-.19-1.76c-.06-.44-.25-.82-.44-1-.44-.19-1.51.44-3.14,1.95Z"/>
        <path class="cls-1" d="M69.83,93.59c.19-1.95.94-3.71,2.14-5.46,2.76-4.08,6.22-7.66,10.24-10.61,3.58-2.45,6.22-3.27,7.91-2.64,1.7.69,2.14,2.01,1.38,3.96-1,1.88-2.51,3.39-4.58,4.58-2.07,1.26-4.08,2.26-6.15,3.08-.94.38-1.82.82-2.64,1.13-.5.31-1.07.75-1.57,1.32-.56.63-1.07,1.26-1.44,1.95-.44.63-.63,1.19-.69,1.7-.06.44.19.63.75.63,3.2-.44,7.79-2.07,13.88-4.9,6.03-2.83,10.93-5.53,14.63-8.16.88-.44,1.63-.44,2.26-.06.63.31.94.94.94,1.7-.06.82-.69,1.63-1.88,2.51-2.2,1.51-5.46,3.33-9.73,5.59-4.21,2.2-8.48,4.08-12.81,5.72-4.27,1.57-7.6,2.13-9.99,1.76-2.01-.63-2.89-1.88-2.64-3.77Z"/>
        <path class="cls-1" d="M108.27,96.04c1.07-1.32,2.01-2.76,2.76-4.4.75-1.63,1-2.58.63-2.89-.38-.25-1.26-.19-2.76.38-2.14.75-4.27,1.88-6.41,3.46-.57.38-1.19.75-1.82,1.19-1.13.75-1.95,1.32-2.51,1.82-.57.44-1,.88-1.32,1.19-.38.31-.75.69-1.13.94-1.19.69-2.07.69-2.7,0-.63-.63-.63-1.51,0-2.58.19-.31.75-.88,1.57-1.7.82-.88,1.76-1.82,2.83-2.83l2.64-2.64c.44-.5.82-.82,1-1-1.95-1.63-1.44-3.89,1.57-6.85,5.97-5.78,10.17-8.48,12.62-8.04,2.45.44,2.07,2.64-1.13,6.59l-6.03,6.66c3.2-1,5.46-1.26,6.85-.69,1.32.63,1.63,2.64,1,6.16l1.82-1.26c1.57-1.19,3.33-2.39,5.34-3.71,2.01-1.26,3.64-2.32,4.96-3.01,1-.44,1.7-.38,2.2.13.44.5.69,1.07.63,1.7-.06.57-.38,1-.94,1.32-1.7.69-3.96,2.13-6.91,4.27-2.89,2.2-5.72,4.4-8.48,6.72-2.76,2.26-4.71,4.15-5.84,5.53-.94,1.13-2.14,2.7-3.77,4.84-1.44,1.95-3.01,3.96-4.58,5.97-1.57,2.07-2.89,3.71-4.02,5.02-.94,1-1.95,1.32-2.95.88-1-.38-1.76-1.07-2.26-2.14-.5-1.13-.44-2.2.19-3.33,1.07-1.63,2.95-3.77,5.53-6.41,2.64-2.64,5.53-5.4,8.73-8.29.69-.69,1.63-1.7,2.7-3.01Z"/>
        <path class="cls-1" d="M168.06,48.5c.69.19,1.26.5,1.7,1.07.38.57.38,1.13-.06,1.76-2.89,3.77-6.34,9.23-10.36,16.39-4.02,7.16-7.66,14.38-10.8,21.6-3.2,7.22-4.96,12.81-5.34,16.77-.13.5-.56.88-1.44,1.07-.82.13-1.63.13-2.45-.06-.82-.25-1.13-.63-1.07-1.26,1.44-6.28,4.08-13.38,7.79-21.42,3.71-8.04,7.47-15.32,11.31-22.04,3.89-6.66,6.78-11.05,8.73-13.25.63-.56,1.26-.75,2.01-.63Z"/>
        <path class="cls-1" d="M180.93,97.61c-1.57.69-3.01.82-4.33.38-1.26-.56-2.32-1.38-3.27-2.45-.94-1.07-1.7-2.01-2.26-2.83h-.06s-.06,0-.06.06h-.06c-2.07,1.63-4.4,2.95-7.03,4.02-2.64,1.07-4.9,1.38-6.85.94-2.01-.69-3.08-1.88-3.2-3.58-.13-1.76.19-3.52,1-5.28,1.07-2.2,2.76-4.65,5.21-7.35,2.51-2.76,5.02-4.77,7.54-6.09,2.07-.88,3.64-1.07,4.65-.38,1,.63,1.32,1.7.88,3.14-.75,1.88-2.07,3.52-3.96,4.84-1.88,1.38-3.77,2.58-5.72,3.58-.94.5-1.76.94-2.45,1.38-.57.38-1.07.88-1.51,1.63-.44.75-.82,1.51-1,2.26s-.13,1.32.13,1.63c1,.94,3.01.5,5.97-1.32,2.95-1.82,5.9-3.96,8.86-6.47,2.95-2.51,4.96-4.33,6.09-5.46.19-.82.57-1.76,1.13-2.83.63-1,1.26-1.88,2.01-2.58,2.14-1.82,4.02-2.7,5.59-2.57,1.63.06,2.32.82,2.07,2.13-.25.75-.88,1.63-1.88,2.76-1,1.07-1.95,2.01-2.89,2.83-.63.57-1,.94-1.13,1.07.19,2.26.25,4.52.25,6.85s-.19,4.33-.57,6.03c-.5,1.7-1.57,2.89-3.14,3.64ZM177.16,93.03c.69.88,1.32,1.26,1.7,1.13.44-.19.75-.88.94-1.95.13-1.07.25-2.26.25-3.58-.06-1.26-.06-2.39-.13-3.33-1.63,1.51-3.2,2.95-4.71,4.27h-.06c-.06.06-.13.12-.19.19.69,1.26,1.44,2.32,2.2,3.27Z"/>
        <path class="cls-1" d="M238.52,60.62c-5.34,3.33-9.92,7.47-13.69,12.37-3.71,4.96-6.15,9.92-7.35,14.88-1.13,4.96-.5,9.17,2.01,12.62,1.95,2.32,4.58,3.27,8.04,2.83,3.39-.44,6.85-1.76,10.3-4.02,3.45-2.26,6.28-4.96,8.35-8.17.19-.38.44-.75.69-1.13.19-.38.44-.75.69-1.19.57-.75,1.26-1.13,2.14-1.07.82.06,1.44.44,1.82,1.07.38.63.38,1.44-.13,2.39-2.95,5.15-6.85,9.23-11.62,12.31-4.84,3.01-9.61,4.4-14.32,4.15-4.71-.25-8.35-2.51-10.99-6.85-1.95-3.89-2.58-8.04-1.82-12.37.75-4.33,2.01-8.17,3.83-11.49,4.27-7.35,9.86-13.44,16.77-18.15,6.91-4.71,13.31-7.22,19.16-7.54,5.9-.38,10.43.88,13.5,3.83.63.63.75,1.26.5,1.82-.19.63-.69,1.07-1.38,1.51-.63.38-1.38.25-2.26-.25-1.19-.94-2.39-1.57-3.52-2.01-1.07-.38-2.32-.63-3.77-.69-5.9.12-11.56,1.82-16.96,5.15Z"/>
        <path class="cls-1" d="M256.86,100.37c-.88,0-1.7-.38-2.26-1-.63-.69-.75-1.63-.38-2.83,1.07-2.95,2.32-5.97,3.71-8.98,1.38-3.08,3.33-6.78,5.84-11.12.63-1.07,1.26-1.7,1.88-1.88.57-.19,1.07-.06,1.57.25.56.44.88.94,1,1.7.13.69-.25,1.44-1.13,2.26-.44.44-1,1.38-1.82,2.76-.75,1.44-1.51,2.83-2.2,4.21-.69,1.38-1.07,2.26-1.13,2.64.5-.63,1-1.32,1.57-2.07,1.19-1.57,2.45-3.14,3.71-4.77,1.32-1.57,2.45-2.83,3.52-3.77.94-.75,1.88-.94,2.83-.63.94.31,1.51,1,1.7,2.07.06.63.06,1.32,0,2.07-.06.57-.13,1.07-.06,1.57,0,.44.13.82.38,1,.63.44,1.76.38,3.27-.13,1.57-.44,3.08-1.13,4.52-2.01.57-.31,1-.25,1.32.19.38.5.5,1.07.38,1.76-.13.69-.63,1.32-1.51,1.82-2.32,1.19-4.65,2.01-6.85,2.39-2.26.44-3.77.38-4.58-.25-.5-.5-.75-1.07-.82-1.76-.06-.75-.06-1.38.06-1.95v-.88c-.06-.13-.19-.13-.38,0-1.7,1.63-3.77,4.08-6.15,7.47-2.39,3.33-4.33,6.22-5.72,8.6-.57.82-1.32,1.26-2.26,1.26Z"/>
        <path class="cls-1" d="M275.13,93.59c.19-1.95.94-3.71,2.14-5.46,2.76-4.08,6.22-7.66,10.24-10.61,3.58-2.45,6.22-3.27,7.91-2.64,1.7.69,2.14,2.01,1.38,3.96-1,1.88-2.51,3.39-4.58,4.58-2.07,1.26-4.08,2.26-6.15,3.08-.94.38-1.82.82-2.64,1.13-.5.31-1.07.75-1.57,1.32-.56.63-1.07,1.26-1.44,1.95-.44.63-.63,1.19-.69,1.7-.06.44.19.63.75.63,3.2-.44,7.79-2.07,13.88-4.9,6.03-2.83,10.93-5.53,14.63-8.16.88-.44,1.63-.44,2.26-.06.63.31.94.94.94,1.7-.06.82-.69,1.63-1.88,2.51-2.2,1.51-5.46,3.33-9.73,5.59-4.21,2.2-8.48,4.08-12.81,5.72-4.27,1.57-7.6,2.13-9.99,1.76-2.01-.63-2.89-1.88-2.64-3.77ZM302.02,59.99c2.57-1.88,4.9-1.51,5.28.13.38,1.51-.56,2.2-1.63,2.95-1.32.88-5.46,4.02-6.59,4.96-1.82,1.63-3.33,2.7-4.58,2.7-1.57,0-2.89-1.38-1.13-2.76,1.82-1.44,6.85-6.59,8.67-7.98Z"/>
        <path class="cls-1" d="M351.25,49.56c.88.13,1.51.5,2.07,1.19.5.63.5,1.45-.06,2.45-2.45,3.89-4.96,7.98-7.41,12.25.57,0,1.07-.06,1.57-.06,1.32-.06,2.14.25,2.45.94.31.63.25,1.32-.13,2.01-.38.69-1,1.07-1.88,1.19-1.44.06-2.95.19-4.46.25-7.91,14.01-13,25.5-15.32,34.54-.25.94-.82,1.44-1.7,1.57-.88.06-1.7-.13-2.39-.69-.69-.56-.94-1.38-.63-2.45.56-1.88,1.57-4.33,2.89-7.47l3.52-8.23c.57-1.19.94-2.07,1.19-2.7-.94,1.32-2.2,2.83-3.89,4.58-1.76,1.76-3.58,3.2-5.46,4.33-1.95,1.19-3.71,1.57-5.28,1.19-1.95-.44-2.76-2.83-2.51-7.03-1.07.88-2.45,2.07-4.15,3.64-1.7,1.57-3.33,3.01-4.96,4.4-1.7,1.44-3.01,2.32-3.96,2.76-2.64.75-3.58-.57-2.83-4.08.82-3.45,4.46-7.91,10.99-13.5,2.45-2.13,4.58-2.26,6.59-.31.75-.63,1.38-1.13,1.95-1.45.44-.19.88-.19,1.38.06.56.19.94.57,1.32,1,.31.44.38.82.25,1.19-.25.5-.56,1.19-1,2.2-.44.94-.82,1.95-1.19,3.01-.31,1.07-.5,2.01-.5,2.76s.38,1.19,1,1.19c2.07-.12,4.84-2.2,8.23-6.09,3.39-3.89,6.91-8.54,10.49-13.94-12.25,1.19-22.3,2.7-30.02,4.46-.94.19-1.57,0-2.01-.57s-.57-1.19-.44-1.95c.13-.69.63-1.19,1.44-1.51,4.52-1,9.86-1.95,16.08-2.83,6.15-.82,12.12-1.51,17.77-2.01,3.89-6.09,6.97-11.3,9.23-15.64.38-.57.94-.82,1.76-.69Z"/>
        <path class="cls-1" d="M351.19,77.95c.82.19,1.44.63,1.95,1.26.5.69.5,1.38,0,2.2-1.38,1.76-2.64,3.58-3.83,5.46-1.19,1.82-1.95,3.39-2.14,4.65-.25,1.26.38,1.82,1.88,1.7,2.26-.31,4.84-1.26,7.6-2.83,2.76-1.57,5.28-3.2,7.6-4.9,2.32-1.7,3.89-2.95,4.77-3.64.25-.19.38-.31.44-.38.5-.31,1-.44,1.44-.25.5.19.75.5.88,1,.13.5-.13,1-.69,1.63-1,.94-2.83,2.51-5.59,4.71-2.76,2.2-5.78,4.21-9.11,6.09s-6.28,2.83-8.92,2.89c-2.64.06-4.27-1.57-4.96-4.9-.06-2.39.75-5.02,2.45-7.85s3.08-4.96,4.21-6.34c.5-.57,1.13-.69,2.01-.5ZM354.33,71.11c.63-1.19,1.38-2.14,2.14-2.7.38-.25,1-.44,1.82-.44.82-.06,1.57.06,2.2.31.69.25.94.69.75,1.38-.31.75-1,1.76-2.07,2.89-1.13,1.19-2.26,2.2-3.45,3.01-1.19.88-2.07,1.19-2.64,1.07-.38-.19-.44-.88-.19-2.01.31-1.07.75-2.26,1.44-3.52Z"/>
        <path class="cls-1" d="M393.39,81.34c.63.38,1,.88,1.13,1.57.13.75-.19,1.38-.94,2.01-3.39,2.45-7.35,4.02-11.74,4.77-4.46.75-7.85.44-10.17-.94-.13.44-.25.88-.31,1.32-.69,3.33-1.76,7.16-3.14,11.49-1.44,4.33-3.39,7.54-5.9,9.61-1.07.69-2.01.94-2.89.69-.88-.25-1.51-.88-1.82-1.95-.38-2.07,0-4.84,1.19-8.23,1.19-3.45,2.58-6.85,4.27-10.17,1.7-3.33,3.08-5.97,4.15-7.85.25-.5.44-1,.5-1.44.13-.31.19-.69.38-.94.13-.31.38-.56.69-.82.69-.63,2.01-2.45,3.89-5.53,1.57-2.64,3.39-5.28,5.28-7.98,1.95-2.7,3.77-4.65,5.46-5.9.69-.44,1.38-.63,1.95-.44.57.12,1,.5,1.32.94.25.5.31.94.19,1.44-.31,1-.82,2.14-1.51,3.46-.69,1.32-1.44,2.39-2.26,3.27-.75.88-1.51,1.13-2.2.82-1.32,1.57-2.26,2.83-2.95,3.71-.69.94-1.32,1.76-1.82,2.64-.56.82-1.19,1.88-2.07,3.27-.31.57-.69,1.13-1.07,1.82-.25.44-.25,1,.06,1.63.38.57.94,1.07,1.82,1.51,2.14.82,5.02.82,8.54,0,3.45-.82,6.15-1.95,8.04-3.45.69-.57,1.32-.63,1.95-.31ZM361.93,106.03c.44-.5,1.07-1.63,1.76-3.33.75-1.7,1.38-3.52,2.01-5.4.56-1.88.94-3.33,1-4.33-.69,1.13-1.32,2.51-2.01,4.02-.69,1.57-1.26,3.08-1.76,4.58-.56,1.44-.94,2.58-1.13,3.45-.19.88-.19,1.19.13,1Z"/>
        <path class="cls-1" d="M392.83,89.76c-1.44-1.32-2.45-2.7-3.14-4.14-.69-1.51-.25-3.27,1.26-5.4,3.01-3.64,5.72-5.9,8.16-6.66s3.71-.25,3.71,1.7c-.06.63-.25,1.13-.57,1.38s-.75.5-1.32.69c-.75.19-1.63.63-2.7,1.32-1.07.69-2.32,1.95-3.83,3.77-.5.63-.63,1.13-.5,1.57.19.38.63.88,1.38,1.57l1.13,1.07c2.07-1.32,4.9-2.58,8.42-3.77,3.45-1.19,6.85-1.82,10.05-1.88.69.12,1.13.44,1.32,1,.25.57.19,1.13,0,1.7-.25.5-.69.82-1.38.94-2.45,0-5.09.5-8.1,1.44-2.95.94-5.78,2.32-8.48,4.15.38,1.44-.25,3.45-1.88,6.09-1.63,2.64-3.64,4.77-6.09,6.47-1.95,1.13-3.52,1.44-4.77.82-1.19-.63-1.51-2.01-1-4.08,1.13-2.95,3.89-6.22,8.35-9.74Z"/>
      </g>
    </g>
  </g>
</svg>